<?xml version="1.0" standalone="no"?>
<!DOCTYPE svg PUBLIC "-//W3C//DTD SVG 20010904//EN"
 "http://www.w3.org/TR/2001/REC-SVG-20010904/DTD/svg10.dtd">
<svg version="1.0" xmlns="http://www.w3.org/2000/svg"
 width="500.000000pt" height="500.000000pt" viewBox="0 0 500.000000 500.000000"
 preserveAspectRatio="xMidYMid meet">
<metadata>
Created by potrace 1.14, written by Peter Selinger 2001-2017
</metadata>
<g transform="translate(0.000000,500.000000) scale(0.100000,-0.100000)"
fill="#000000" stroke="none">
<path d="M2340 3412 c-88 -29 -175 -80 -244 -143 -122 -112 -153 -175 -316
-651 -119 -345 -155 -476 -172 -615 -31 -271 68 -464 281 -543 257 -97 526
-12 624 198 26 56 32 82 35 160 l4 92 47 0 c26 0 90 7 141 16 391 67 674 296
780 629 18 57 23 97 25 220 2 146 -9 240 -26 229 -5 -3 -6 1 -3 9 11 30 -57
141 -131 213 -86 85 -174 132 -320 171 -95 25 -114 27 -385 30 -254 2 -291 1
-340 -15z m674 -180 c116 -32 174 -62 244 -126 90 -84 124 -157 129 -284 16
-341 -202 -610 -573 -708 -93 -25 -117 -27 -399 -33 l-300 -6 -53 -29 c-134
-75 -195 -230 -144 -363 11 -29 17 -53 12 -53 -22 0 -100 85 -121 132 -36 79
-34 242 5 392 57 222 269 823 317 898 37 57 99 116 162 153 90 52 111 55 387
51 223 -2 265 -6 334 -24z m523 -554 c-3 -8 -6 -5 -6 6 -1 11 2 17 5 13 3 -3
4 -12 1 -19z m-1234 -787 c41 -24 70 -91 62 -143 -11 -62 -74 -124 -137 -133
-89 -13 -162 47 -162 135 0 126 129 203 237 141z"/>
<path d="M2506 2853 c-19 -45 -136 -397 -136 -406 0 -6 54 -8 143 -5 155 5
228 24 293 73 94 71 125 205 67 283 -39 52 -86 67 -229 70 -120 4 -132 2 -138
-15z"/>
<path d="M3553 2805 c0 -33 2 -45 4 -27 2 18 2 45 0 60 -2 15 -4 0 -4 -33z"/>
</g>
</svg>
